PathFileType   4   (X/Y/Z)
DataRate  CameraRate  NumFrames  NumMarkers  Units  OrigDataRate  OrigDataStartFrame  OrigNumFrames  
  120.0      120.0        9         37         mm      120.0          27        105
Frame#      Time                    midhip                           hip_r                           hip_l                          knee_r                          knee_l                         ankle_r                         ankle_l                         midasis                          asis_r                          asis_l                          psis_r                          psis_l                    epicondLat_r                    epicondLat_l                    epicondMed_r                    epicondMed_l                  malleolusLat_r                  malleolusLat_l                 malleolusMedv_r                 malleolusMedv_l                    sternalnotch                  xyphoidprocess                            neck                           toe_r                           toe_l                     thighwand_r                     thighwand_l                     upperleg1_r                     upperleg1_l                     upperleg2_r                     upperleg2_l                     shankwand_r                     shankwand_l                     lowerleg1_r                     lowerleg1_l                   subclavicle_r                   subclavicle_l            
              X1          Y1          Z1          X2          Y2          Z2          X3          Y3          Z3          X4          Y4          Z4          X5          Y5          Z5          X6          Y6          Z6          X7          Y7          Z7          X8          Y8          Z8          X9          Y9          Z9          X10          Y10          Z10          X11          Y11          Z11          X12          Y12          Z12          X13          Y13          Z13          X14          Y14          Z14          X15          Y15          Z15          X16          Y16          Z16          X17          Y17          Z17          X18          Y18          Z18          X19          Y19          Z19          X20          Y20          Z20          X21          Y21          Z21          X22          Y22          Z22          X23          Y23          Z23          X24          Y24          Z24          X25          Y25          Z25          X26          Y26          Z26          X27          Y27          Z27          X28          Y28          Z28          X29          Y29          Z29          X30          Y30          Z30          X31          Y31          Z31          X32          Y32          Z32          X33          Y33          Z33          X34          Y34          Z34          X35          Y35          Z35          X36          Y36          Z36          X37          Y37          Z37          

	27	0.34167	1584.425	771.147	-297.522	1577.969	769.381	-240.486	1590.880	772.913	-354.558	1679.358	426.101	-216.152	1509.238	437.959	-335.700	1607.499	89.842	-223.001	1478.677	65.776	-322.492	1618.059	844.005	-292.103	1620.737	846.849	-181.893	1615.381	841.162	-402.313	1443.113	871.463	-251.030	1445.360	868.660	-305.104	1695.409	435.022	-156.376	1536.742	412.675	-394.279	1695.313	428.254	-274.568	1528.451	429.314	-277.312	1597.519	91.403	-186.887	1471.364	65.427	-358.250	1611.969	84.614	-256.051	1474.262	69.020	-289.057	1610.336	1193.776	-303.771	1616.467	1091.818	-306.815	1505.629	1265.664	-300.553	1683.033	64.471	-204.644	1564.491	44.450	-320.067	1761.780	611.296	-186.703	1654.833	558.519	-416.593	1697.459	626.346	-152.380	1639.799	607.701	-351.853	1709.964	568.780	-156.045	1622.985	551.072	-341.862	1745.270	182.101	-181.594	1484.915	161.362	-452.098	1670.188	182.972	-208.279	1484.573	157.720	-373.225	1612.008	1193.616	-247.143	1614.217	1194.301	-354.125
	28	0.35000	1593.038	770.273	-297.720	1586.737	768.574	-240.664	1599.339	771.973	-354.775	1686.722	426.132	-216.460	1513.034	438.981	-335.714	1634.969	86.352	-223.095	1478.919	65.948	-322.198	1626.828	843.103	-292.448	1629.803	846.061	-182.346	1623.853	840.146	-402.550	1451.978	870.875	-250.646	1454.324	867.895	-304.473	1706.553	435.005	-156.746	1539.072	412.490	-394.261	1701.188	428.022	-274.597	1532.835	428.110	-279.486	1624.961	87.456	-186.971	1471.449	65.649	-357.924	1640.497	80.048	-255.824	1474.546	69.227	-288.742	1619.170	1192.894	-302.883	1625.102	1090.925	-305.972	1514.717	1264.918	-300.105	1711.686	63.936	-204.496	1564.435	44.400	-319.934	1771.073	611.349	-188.059	1659.549	556.825	-417.261	1707.777	626.198	-152.696	1645.600	606.176	-351.898	1719.556	568.478	-156.517	1628.400	550.071	-342.734	1768.165	185.081	-181.895	1485.266	161.463	-451.907	1693.569	181.777	-209.239	1485.128	157.939	-372.903	1620.741	1192.699	-246.357	1623.141	1193.438	-353.125
	29	0.35833	1601.721	769.261	-297.934	1595.535	767.600	-240.865	1607.908	770.921	-355.003	1696.109	425.038	-216.793	1524.277	431.665	-335.733	1662.260	83.368	-223.222	1479.165	66.148	-321.888	1635.623	842.061	-292.752	1638.842	845.082	-182.767	1632.403	839.041	-402.737	1460.856	870.138	-250.233	1463.367	867.072	-303.768	1717.362	434.720	-157.090	1541.539	412.323	-394.278	1710.176	426.228	-273.832	1544.102	420.440	-281.619	1652.273	84.004	-187.082	1471.550	65.897	-357.584	1667.534	77.243	-255.878	1474.895	69.413	-288.411	1628.335	1191.809	-302.400	1634.167	1089.833	-305.439	1523.575	1264.188	-299.476	1740.094	63.797	-204.457	1564.496	44.443	-319.857	1780.262	611.061	-189.321	1664.367	555.083	-417.908	1716.920	625.303	-153.655	1647.640	604.198	-351.659	1728.745	567.863	-157.023	1633.645	548.432	-343.310	1790.618	188.362	-182.291	1485.699	161.598	-451.723	1716.371	179.727	-208.124	1485.805	158.106	-372.552	1629.780	1191.633	-245.868	1632.419	1192.330	-352.636
	30	0.36667	1610.451	768.103	-298.158	1604.345	766.459	-241.080	1616.556	769.746	-355.237	1706.774	423.843	-217.112	1524.355	433.354	-335.894	1689.261	80.875	-223.355	1479.414	66.375	-321.567	1644.458	840.898	-293.000	1647.877	843.938	-183.121	1641.039	837.858	-402.878	1469.742	869.276	-249.795	1472.458	866.195	-303.022	1727.893	434.191	-157.408	1544.171	412.171	-394.320	1720.768	424.736	-273.711	1544.487	422.107	-280.418	1679.357	81.044	-187.187	1471.672	66.170	-357.236	1693.975	76.319	-256.350	1475.203	69.652	-288.072	1637.562	1190.385	-302.537	1643.359	1088.407	-305.564	1532.256	1263.168	-299.022	1768.139	64.081	-204.568	1564.655	44.545	-319.815	1789.332	610.429	-190.466	1669.325	553.293	-418.514	1725.419	624.346	-154.594	1654.163	602.174	-351.938	1737.808	567.336	-157.651	1638.044	546.187	-343.110	1812.560	191.919	-182.807	1486.237	161.765	-451.556	1738.722	180.501	-207.712	1486.516	158.312	-372.210	1638.786	1190.204	-246.138	1641.842	1190.910	-352.617
	31	0.37500	1619.178	766.852	-298.359	1613.132	765.205	-241.274	1625.225	768.499	-355.443	1717.045	422.715	-217.377	1520.917	437.649	-336.011	1715.849	78.852	-223.454	1479.670	66.628	-321.243	1653.346	839.628	-293.175	1656.935	842.656	-183.377	1649.757	836.600	-402.974	1478.658	868.301	-249.350	1481.576	865.256	-302.278	1738.197	433.458	-157.697	1547.000	412.030	-394.367	1730.491	423.700	-274.027	1540.482	427.973	-277.400	1706.100	78.567	-187.244	1471.825	66.468	-356.890	1720.675	74.974	-256.586	1475.414	69.887	-287.723	1646.575	1188.643	-302.566	1652.017	1086.651	-305.765	1541.558	1261.760	-298.943	1795.686	64.796	-204.860	1564.880	44.658	-319.777	1798.271	609.457	-191.474	1674.465	551.468	-419.053	1734.108	623.329	-155.028	1661.379	600.063	-352.709	1746.964	566.574	-158.133	1641.285	543.921	-342.463	1833.921	195.701	-183.457	1486.903	161.962	-451.411	1760.652	181.675	-208.303	1487.210	158.477	-371.840	1647.624	1188.355	-246.468	1651.010	1189.243	-352.327
	32	0.38333	1627.967	765.541	-298.469	1621.979	763.874	-241.379	1633.954	767.208	-355.560	1726.658	421.008	-217.615	1528.941	435.596	-336.313	1741.888	77.278	-223.479	1479.944	66.905	-320.926	1662.291	838.263	-293.273	1666.039	841.258	-183.522	1658.542	835.268	-403.025	1487.620	867.221	-248.911	1490.661	864.241	-301.586	1748.321	432.564	-157.962	1550.054	411.888	-394.392	1740.067	422.031	-274.771	1551.683	423.926	-278.404	1732.378	76.568	-187.211	1472.016	66.794	-356.555	1747.276	73.353	-256.564	1475.583	69.978	-287.367	1655.588	1186.942	-302.268	1660.664	1084.940	-305.749	1551.161	1260.223	-299.093	1822.600	65.937	-205.349	1565.136	44.747	-319.717	1807.092	608.169	-192.332	1679.825	549.621	-419.506	1742.895	621.719	-155.844	1668.276	598.071	-353.287	1755.997	565.012	-158.939	1649.735	543.146	-343.828	1854.639	199.645	-184.251	1487.710	162.185	-451.286	1782.255	182.424	-209.149	1487.970	158.584	-371.291	1656.618	1186.495	-246.255	1660.040	1187.664	-351.941
	33	0.39167	1636.857	764.159	-298.435	1630.944	762.476	-241.337	1642.770	765.843	-355.532	1734.759	419.223	-217.836	1536.674	433.583	-336.419	1767.238	76.131	-223.415	1480.247	67.207	-320.626	1671.294	836.821	-293.298	1675.203	839.767	-183.561	1667.385	833.875	-403.034	1496.627	866.044	-248.483	1499.702	863.134	-300.975	1758.302	431.553	-158.213	1553.365	411.730	-394.370	1748.396	420.637	-276.560	1560.576	419.551	-280.823	1758.053	75.044	-187.073	1472.260	67.153	-356.241	1772.548	72.553	-256.555	1475.629	70.142	-287.031	1664.672	1185.462	-301.688	1669.724	1083.459	-305.186	1560.438	1258.663	-299.025	1848.748	67.487	-206.034	1565.396	44.794	-319.627	1815.831	606.612	-193.027	1685.424	547.764	-419.860	1751.676	619.735	-156.625	1674.271	596.126	-353.049	1764.587	562.958	-159.977	1656.786	541.713	-344.675	1874.661	203.691	-185.202	1488.669	162.431	-451.170	1803.078	183.116	-209.386	1488.701	158.804	-370.738	1665.752	1185.005	-245.481	1669.082	1186.190	-351.562
	34	0.40000	1645.826	762.679	-298.290	1640.008	760.987	-241.183	1651.645	764.371	-355.397	1743.336	417.709	-218.019	1542.627	432.161	-336.347	1791.764	75.393	-223.277	1480.600	67.538	-320.352	1680.357	835.324	-293.257	1684.431	838.209	-183.505	1676.282	832.439	-403.009	1505.676	864.769	-248.066	1508.625	861.937	-300.473	1768.167	430.462	-158.463	1556.965	411.533	-394.290	1756.273	419.957	-278.117	1566.364	416.751	-282.442	1782.982	73.986	-186.847	1472.570	67.551	-355.957	1796.563	72.277	-256.512	1475.772	70.605	-286.741	1673.758	1183.822	-301.129	1678.788	1081.810	-304.363	1569.694	1256.947	-298.597	1873.993	69.412	-206.905	1565.652	44.805	-319.514	1824.540	604.850	-193.553	1691.268	545.909	-420.114	1760.382	617.865	-156.335	1680.167	593.925	-352.762	1773.296	561.231	-160.326	1662.700	539.596	-344.982	1893.939	207.778	-186.315	1489.794	162.698	-451.049	1823.206	183.683	-209.214	1489.574	159.077	-370.526	1674.845	1183.509	-244.609	1678.162	1184.423	-351.317
	35	0.40833	1654.847	761.123	-298.141	1649.129	759.411	-241.024	1660.564	762.835	-355.257	1750.603	416.438	-218.191	1547.247	431.169	-336.188	1815.337	75.037	-223.100	1481.016	67.909	-320.106	1689.476	833.791	-293.165	1693.718	836.609	-183.377	1685.233	830.973	-402.953	1514.779	863.383	-247.664	1517.417	860.653	-300.073	1777.950	429.326	-158.722	1560.887	411.276	-394.146	1762.396	418.704	-277.689	1570.969	416.159	-281.491	1807.016	73.373	-186.573	1472.963	68.002	-355.706	1819.287	72.935	-256.559	1476.331	71.223	-286.512	1682.869	1181.970	-301.028	1687.767	1079.952	-304.286	1578.856	1255.250	-298.174	1898.192	71.650	-207.949	1565.915	44.795	-319.397	1833.274	602.955	-193.906	1697.350	544.060	-420.272	1769.608	616.517	-155.737	1686.605	591.877	-352.829	1782.089	559.602	-159.984	1668.489	537.551	-344.737	1912.424	211.836	-187.569	1491.109	162.986	-450.911	1842.733	185.167	-208.961	1490.967	159.422	-370.515	1683.867	1181.636	-244.274	1687.353	1182.582	-351.442
